<?xml version="1.0" encoding="UTF-8"?>
<svg width="120px" height="30px" viewBox="0 0 120 30" version="1.1" xmlns="http://www.w3.org/2000/svg" xmlns:xlink="http://www.w3.org/1999/xlink">
    <!-- Generator: Sketch 50 (54983) - http://www.bohemiancoding.com/sketch -->
    <title>Shape</title>
    <desc>Created with Sketch.</desc>
    <defs></defs>
    <g id="Page-1" stroke="none" stroke-width="1" fill="none" fill-rule="evenodd">
        <g id="Desktop-HD-Copy-3" transform="translate(-293.000000, -1858.000000)" fill="#703484" fill-rule="nonzero">
            <g id="Logos" transform="translate(293.000000, 1848.000000)">
                <g id="aetna-1" transform="translate(0.000000, 10.000000)">
                    <path d="M106.948617,25.1181683 C106.857769,23.5205463 106.857769,21.3016269 106.857769,19.3489777 L105.860789,19.3489777 C102.326039,19.3489777 100.96652,20.502607 100.96652,22.5442218 C100.96652,24.6743844 102.054349,25.4731955 104.591904,25.4731955 C105.49825,25.3844387 106.404596,25.2956819 106.948617,25.1181683 Z M114.743193,29.4674593 C110.120828,29.4674593 106.495444,30 102.87006,30 C95.9816172,30 93.5346962,27.2485399 93.5346962,22.4556738 C93.5346962,17.8401125 97.4319841,15.3551315 105.861002,15.3551315 L107.039252,15.3551315 L107.039252,14.9113476 C107.039252,11.627138 106.042271,10.2957863 102.598156,10.2957863 C100.151022,10.2957863 97.7038879,11.0945973 95.9818304,11.9821651 L95.7101399,6.74551517 C97.6134665,5.94670416 100.876312,5.41416349 104.501696,5.41416349 C111.933947,5.41416349 114.652985,7.81080535 114.652985,14.2898414 C114.652985,17.7513557 114.381081,20.7690862 114.381081,22.8994577 C114.380655,24.7631412 114.380655,27.5146014 114.743193,29.4674593 Z M35.6191854,15.7099498 C38.8822443,15.7099498 40.4228193,14.6448685 40.4228193,12.3374011 C40.4228193,10.739779 39.3352041,9.85221126 37.522512,9.85221126 C34.4409356,9.85221126 33.3531071,12.2488531 33.3531071,15.5326451 L33.3531071,15.6214019 C33.9877626,15.7099498 34.803474,15.7099498 35.6191854,15.7099498 Z M13.4137079,25.1181683 C13.3230733,23.5205463 13.3230733,21.3016269 13.3230733,19.3489777 L12.3260926,19.3489777 C8.79134315,19.3489777 7.43182412,20.502607 7.43182412,22.5442218 C7.43182412,24.6743844 8.5196526,25.4731955 11.1478428,25.4731955 C11.8729196,25.3844387 12.7792656,25.2956819 13.4137079,25.1181683 Z M36.5255314,19.6152481 C35.6191854,19.6152481 34.1690318,19.6152481 33.4441682,19.5264913 L33.4441682,19.7042137 C33.4441682,22.9882145 35.7100333,25.1183772 39.8792249,25.1183772 C42.4167806,25.1183772 44.6826456,24.3195662 46.3142817,23.4319984 L46.5861855,28.6686483 C44.9547627,29.3784937 41.7825516,29.9112432 38.6103405,29.9112432 C30.1813225,29.9112432 26.1027654,27.0708175 25.3776886,19.4379433 C24.380708,19.3491866 22.9303411,19.3491866 20.9365931,19.3491866 C20.8459585,20.6805382 20.8459585,21.8341675 20.8459585,22.8994577 C20.8459585,24.7633501 20.8459585,27.5148102 21.2084969,29.3784937 C16.5859189,29.3784937 12.9605349,29.9112432 9.33515076,29.9112432 C2.446921,29.9112432 0,27.1595742 0,22.4556738 C0,17.8401125 3.89707463,15.3551315 12.3263059,15.3551315 L13.5045557,15.3551315 L13.5045557,14.9113476 C13.5045557,11.627138 12.5073618,10.2957863 9.06346022,10.2957863 C6.6161127,10.2957863 4.1691917,11.0945973 2.44713426,11.9821651 L2.17501719,6.74551517 C4.07834384,5.94670416 7.34118952,5.41416349 10.9665736,5.41416349 C18.398611,5.41416349 21.117649,7.81080535 21.117649,14.2898414 L21.117649,15.3551315 C22.9303411,15.3551315 24.1992255,15.3551315 25.4681099,15.4438883 C26.1931868,9.05319142 29.546667,5.41437233 37.7944158,5.41437233 C44.592011,5.41437233 47.7642221,8.16583247 47.7642221,12.4261578 C47.7642221,17.3963286 43.9575688,19.6152481 36.5255314,19.6152481 Z M90.4531197,18.6389235 L90.4531197,14.023571 C90.4531197,8.16541479 87.8247162,5.50271143 80.3020443,5.50271143 C76.0420047,5.50271143 73.0512761,6.21276566 68.3380635,6.21276566 C68.6099673,10.3843343 68.6099673,15.4434706 68.6099673,18.6387147 C68.6099673,21.8339587 68.5193327,27.6031493 68.3380635,29.4672505 L76.4045431,29.4672505 C76.3139085,27.6031493 76.1328526,22.1889858 76.1328526,18.6387147 C76.1328526,16.5973088 76.1328526,14.112119 76.2234872,10.7393614 C77.0391986,10.4732999 78.0361792,10.2955775 79.1237944,10.2955775 C81.9334671,10.2955775 82.8398131,11.6269292 82.8398131,15.0884435 L82.8398131,18.6387147 C82.8398131,21.8339587 82.7491785,27.6031493 82.5681226,29.4672505 L90.6343889,29.4672505 C90.6343889,27.6033581 90.4531197,22.1891946 90.4531197,18.6389235 Z M65.0754311,24.2306006 L65.4379695,29.3782849 C64.8035273,29.5560073 62.9002006,29.9110344 60.2717972,29.9110344 C54.9243557,29.9110344 52.114683,27.7808717 52.114683,22.455465 C52.114683,18.2836875 52.2053176,13.7573007 52.2053176,11.271902 L49.4862795,11.271902 C49.5769141,10.1182728 49.4862795,8.5204419 49.4862795,7.36681262 C53.6554712,6.65675839 54.9243557,4.43783893 55.5587979,0 L60.090528,0 C59.9092588,1.77513557 59.8188374,4.43783893 59.8188374,6.2129745 L64.6222581,6.2129745 L64.6222581,11.2721109 L59.7279896,11.2721109 L59.7279896,20.3253023 C59.7279896,23.8755734 60.4530664,24.7631412 62.9002006,24.7631412 C63.7159121,24.7631412 64.6222581,24.4968709 65.0754311,24.2306006 Z M117.915404,7.10054229 C118.277943,7.10054229 118.459212,6.92302873 118.459212,6.65675839 C118.459212,6.56800162 118.368577,6.39048806 118.368577,6.39048806 C118.277943,6.30173128 118.096673,6.30173128 117.915404,6.30173128 L117.552652,6.30173128 L117.552652,7.10054229 L117.915404,7.10054229 Z M117.190327,6.03546094 L117.82477,6.03546094 C118.187095,6.03546094 118.459212,6.12421772 118.549633,6.2129745 C118.731116,6.39048806 118.821537,6.56800162 118.821537,6.74551517 C118.821537,6.83427195 118.821537,6.92323757 118.730902,7.01178551 C118.730902,7.10054229 118.640054,7.18929907 118.640054,7.18929907 L118.458785,7.36702146 C118.368151,7.36702146 118.277516,7.45577824 118.277516,7.45577824 L118.911958,8.4321028 L118.549207,8.4321028 C118.458572,8.4321028 118.458572,8.34334603 118.367937,8.25458925 L117.823917,7.45577824 L117.552226,7.45577824 L117.552226,8.4321028 L117.189688,8.4321028 L117.189688,6.03546094 L117.190327,6.03546094 Z M117.190327,8.78692108 C117.37181,8.87567786 117.6435,8.96443464 117.915404,8.96443464 C118.187095,8.96443464 118.368577,8.87567786 118.640268,8.78692108 C118.82175,8.6981643 119.002806,8.52065074 119.184289,8.43189397 C119.365558,8.25438041 119.455979,8.07686685 119.455979,7.89935329 C119.546614,7.7216309 119.546614,7.4555694 119.546614,7.277847 C119.546614,7.10033345 119.546614,6.83406311 119.455979,6.65654955 L119.184289,6.12400888 C119.002806,5.94628649 118.912385,5.85773855 118.640268,5.76898177 C118.458999,5.68022499 118.187095,5.59146821 117.915404,5.59146821 C117.6435,5.59146821 117.462231,5.68022499 117.190327,5.76898177 C117.009058,5.85773855 116.827789,5.94649533 116.64652,6.12400888 C116.465251,6.30152244 116.374616,6.479036 116.374616,6.65654955 C116.283981,6.83406311 116.283981,7.10033345 116.283981,7.277847 C116.283981,7.63287412 116.374616,7.89935329 116.555885,8.25438041 C116.737154,8.43189397 116.918424,8.6981643 117.190327,8.78692108 Z M116.465251,8.6981643 C116.283768,8.5204419 116.193347,8.25438041 116.102712,8.07665801 C116.012078,7.81059652 116.012078,7.54411734 116.012078,7.277847 C116.012078,7.01178551 116.102712,6.74530633 116.193347,6.47924484 C116.283981,6.2129745 116.374616,6.03546094 116.555885,5.85773855 C116.737154,5.68022499 116.91821,5.50271143 117.190327,5.41395465 C117.462444,5.32519788 117.734135,5.2364411 118.006039,5.2364411 C118.277729,5.2364411 118.640481,5.32519788 118.82175,5.41395465 C119.093441,5.50271143 119.274923,5.68022499 119.456192,5.85773855 C119.637462,6.03546094 119.728096,6.30152244 119.818731,6.47924484 C119.909365,6.74530633 120,7.01178551 120,7.277847 C120,7.54411734 119.909365,7.81059652 119.818731,8.07665801 C119.727883,8.34292835 119.637248,8.5204419 119.456192,8.6981643 C119.274923,8.87567786 119.093654,9.05298258 118.82175,9.14194819 C118.549846,9.23070497 118.277729,9.31946175 118.006039,9.31946175 C117.734135,9.31946175 117.371383,9.23070497 117.190327,9.14194819 C116.827576,9.05319142 116.64652,8.87567786 116.465251,8.6981643 Z" id="Shape"></path>
                </g>
            </g>
        </g>
    </g>
</svg>