<?xml version="1.0" encoding="UTF-8" standalone="no"?>
<svg width="19px" height="29px" viewBox="0 0 19 29" version="1.1" xmlns="http://www.w3.org/2000/svg" xmlns:xlink="http://www.w3.org/1999/xlink">
    <!-- Generator: Sketch 39 (31667) - http://www.bohemiancoding.com/sketch -->
    <title>Page 1</title>
    <desc>Created with Sketch.</desc>
    <defs>
        <polygon id="path-1" points="0 28.8406593 19 28.8406593 19 0 0 0"></polygon>
    </defs>
    <g id="Page-1" stroke="none" stroke-width="1" fill="none" fill-rule="evenodd">
        <g id="Desktop-Copy-2" transform="translate(-37.000000, -28.000000)">
            <g id="Page-1" transform="translate(37.000000, 28.000000)">
                <path d="M9.5,1.27472527 C4.97188136,1.27472527 1.28813559,4.92012088 1.28813559,9.4010989 C1.28813559,13.8820769 4.97188136,17.5274725 9.5,17.5274725 C14.0281186,17.5274725 17.7118644,13.8820769 17.7118644,9.4010989 C17.7118644,4.92012088 14.0281186,1.27472527 9.5,1.27472527 L9.5,1.27472527 Z M9.5,18.4835165 C4.43923729,18.4835165 0.322033898,14.4091758 0.322033898,9.4010989 C0.322033898,4.39302198 4.43923729,0.318681319 9.5,0.318681319 C14.5607627,0.318681319 18.6779661,4.39302198 18.6779661,9.4010989 C18.6779661,14.4091758 14.5607627,18.4835165 9.5,18.4835165 L9.5,18.4835165 Z" id="Fill-1" fill="#000000"></path>
                <path d="M9.5,1.59340659 C5.14932203,1.59340659 1.61016949,5.09603297 1.61016949,9.4010989 C1.61016949,13.7061648 5.14932203,17.2087912 9.5,17.2087912 C13.850678,17.2087912 17.3898305,13.7061648 17.3898305,9.4010989 C17.3898305,5.09603297 13.850678,1.59340659 9.5,1.59340659 M9.5,17.8461538 C4.79444068,17.8461538 0.966101695,14.0576703 0.966101695,9.4010989 C0.966101695,4.74452747 4.79444068,0.956043956 9.5,0.956043956 C14.2055593,0.956043956 18.0338983,4.74452747 18.0338983,9.4010989 C18.0338983,14.0576703 14.2055593,17.8461538 9.5,17.8461538 M9.5,0.637362637 C4.617,0.637362637 0.644067797,4.56861538 0.644067797,9.4010989 C0.644067797,14.2335824 4.617,18.1648352 9.5,18.1648352 C14.383,18.1648352 18.3559322,14.2335824 18.3559322,9.4010989 C18.3559322,4.56861538 14.383,0.637362637 9.5,0.637362637 M9.5,18.8021978 C4.26147458,18.8021978 0,14.5850879 0,9.4010989 C0,4.21710989 4.26147458,0 9.5,0 C14.7385254,0 19,4.21710989 19,9.4010989 C19,14.5850879 14.7385254,18.8021978 9.5,18.8021978" id="Fill-3" fill="#000000"></path>
                <mask id="mask-2" fill="white">
                    <use xlink:href="#path-1"></use>
                </mask>
                <g id="Clip-6"></g>
                <polygon id="Fill-5" fill="#000000" mask="url(#mask-2)" points="4.34745763 28.521978 5.31355932 28.521978 5.31355932 2.39010989 4.34745763 2.39010989"></polygon>
                <path d="M4.66949153,28.2032967 L4.99152542,28.2032967 L4.99152542,2.70879121 L4.66949153,2.70879121 L4.66949153,28.2032967 Z M4.02542373,28.8406593 L5.63559322,28.8406593 L5.63559322,2.07142857 L4.02542373,2.07142857 L4.02542373,28.8406593 Z" id="Fill-7" fill="#000000" mask="url(#mask-2)"></path>
                <polygon id="Fill-8" fill="#000000" mask="url(#mask-2)" points="15.4302542 28.2032967 2.67932203 15.5302967 3.36235593 14.8817802 17.1483051 28.2032967"></polygon>
                <path d="M15.5639305,27.8846154 L16.3577441,27.8846154 L3.36045593,15.3250659 L3.13921864,15.5353956 L15.5639305,27.8846154 Z M17.9389305,28.521978 L15.2966424,28.521978 L15.2019644,28.4282857 L2.21948983,15.5248791 L3.36432034,14.4381758 L17.9389305,28.521978 Z" id="Fill-9" fill="#000000" mask="url(#mask-2)"></path>
            </g>
        </g>
    </g>
</svg>