<?xml version="1.0" encoding="UTF-8"?>
<svg width="56px" height="36px" viewBox="0 0 56 36" version="1.1" xmlns="http://www.w3.org/2000/svg" xmlns:xlink="http://www.w3.org/1999/xlink">
    <!-- Generator: Sketch 50 (54983) - http://www.bohemiancoding.com/sketch -->
    <title>citi-1</title>
    <desc>Created with Sketch.</desc>
    <defs></defs>
    <g id="Page-1" stroke="none" stroke-width="1" fill="none" fill-rule="evenodd">
        <g id="Desktop-HD-Copy-3" transform="translate(-671.000000, -1855.000000)" fill-rule="nonzero">
            <g id="Logos" transform="translate(293.000000, 1848.000000)">
                <g id="citi-1" transform="translate(378.000000, 7.000000)">
                    <path d="M26.8458195,13.1944601 L22.2434672,13.1944601 L22.2434672,35.5606898 L26.8458195,35.5606898 L26.8458195,13.1944601 Z M31.0091464,13.1944601 L31.0091464,17.3619699 L34.9529604,17.3619699 L34.9529604,29.9698745 C34.9529604,31.7256309 35.2822296,33.1504206 36.2685539,34.2472119 C37.2548782,35.2326914 38.4607153,35.7818291 39.9943383,35.8901725 C41.6377178,35.8901725 42.9518281,35.5606898 44.0464256,34.7948654 L45.1425063,30.8484948 L45.1425063,30.5190122 L44.9244767,30.6273556 C43.7201228,31.3961483 42.6240421,31.8339743 41.5279614,31.8339743 C40.1040947,31.8339743 39.4470396,30.955354 39.4470396,29.3109093 L39.4470396,17.3604858 L44.0479088,17.3604858 L44.0479088,13.1944601 L39.4470396,13.1944601 L39.4470396,6.28571429 L34.9529604,8.58912428 L34.9529604,13.1944601 L31.0091464,13.1944601 Z M53.1428571,13.1944601 L48.5405048,13.1944601 L48.5405048,35.5606898 L53.1428571,35.5606898 L53.1428571,13.1944601 Z M11.7231689,12.8649775 C8.43641003,12.8649775 5.69694988,13.7435978 3.50478849,15.8243844 C1.0960807,17.9081393 0,20.7592028 0,24.377575 C0,27.8861196 1.0960807,30.8470106 3.50478849,32.9307656 C5.69694988,35.0130363 8.43641003,36 11.7231689,36 C14.7918982,36 17.4230852,34.6835537 19.6122802,32.1634569 L19.6122802,32.0536294 L17.0923328,28.984395 L16.9840596,29.0942225 C15.3406802,30.7371831 13.5875444,31.6143193 11.5066225,31.6143193 C9.53249073,31.6143193 7.88911128,30.9568382 6.575001,29.5320485 C5.25940752,28.2156022 4.60235238,26.5711574 4.60235238,24.377575 C4.60235238,22.2953042 5.25940752,20.5395478 6.575001,19.2245856 C7.88911128,17.7983118 9.53249073,17.2506582 11.5066225,17.2506582 C13.5875444,17.2506582 15.3406802,18.0179668 16.9840596,19.6624116 L17.0923328,19.7722391 L19.6122802,16.7030047 L19.6122802,16.5931772 C17.4230852,14.0715963 14.7918982,12.8649775 11.7231689,12.8649775 Z" id="Shape" fill="#1C4882"></path>
                    <path d="M24.6701609,9.71428571 C28.2729225,5.89447607 32.6396823,4.03850667 37.7704403,4.03850667 C42.7903669,4.03850667 47.1600822,5.89447607 50.6520123,9.71428571 L56,9.71428571 L55.892124,9.38624017 C53.8188367,6.43974097 51.0879494,4.25572602 47.813249,2.51058282 C44.6464245,0.763961928 41.2623704,0 37.7704403,0 C34.1676788,0 30.7821469,0.763961928 27.6168002,2.51058282 C24.340622,4.2572037 21.7205662,6.43974097 19.6458011,9.38624017 L19.4285714,9.71428571 L24.6701609,9.71428571 Z" id="Shape" fill="#CF4037"></path>
                </g>
            </g>
        </g>
    </g>
</svg>