<?xml version="1.0" encoding="UTF-8" standalone="no"?>
<svg width="51px" height="51px" viewBox="0 0 51 51" version="1.1" xmlns="http://www.w3.org/2000/svg" xmlns:xlink="http://www.w3.org/1999/xlink">
    <!-- Generator: Sketch 39 (31667) - http://www.bohemiancoding.com/sketch -->
    <title>dribbble-icon_3_</title>
    <desc>Created with Sketch.</desc>
    <defs></defs>
    <g id="Page-1" stroke="none" stroke-width="1" fill="none" fill-rule="evenodd">
        <g id="dribbble" fill="#5B5B5B">
            <g id="Page-1">
                <g id="Layer_1">
                    <path d="M25.1,0 C11.2,0 0,11.2 0,25.1 C0,38.9 11.2,50.2 25.1,50.2 C39,50.2 50.2,39 50.2,25.1 C50.1,11.2 38.9,0 25.1,0 L25.1,0 L25.1,0 Z M45.7,23.9 C40.3,23 35.4,23 30.9,23.7 C30.4,22.5 29.9,21.4 29.3,20.2 C34.1,18.1 38,15.3 40.9,11.7 C43.7,15 45.4,19.3 45.7,23.9 L45.7,23.9 L45.7,23.9 Z M37.7,8.7 C35.2,11.9 31.7,14.5 27.3,16.4 C25.1,12.5 22.7,8.7 20,5 C21.6,4.6 23.3,4.3 25.1,4.3 C29.8,4.4 34.2,6 37.7,8.7 L37.7,8.7 L37.7,8.7 Z M15.7,6.6 C18.5,10.2 20.9,14 23.1,17.8 C18,19.3 12,20.1 5,20.2 C6.4,14.2 10.4,9.3 15.7,6.6 L15.7,6.6 L15.7,6.6 Z M4.4,25.1 L4.4,24.6 C12.4,24.6 19.4,23.7 25.2,21.8 C25.7,22.8 26.2,23.8 26.6,24.8 C19.5,27 13.7,31.5 9.1,38.3 C6.2,34.7 4.4,30.1 4.4,25.1 L4.4,25.1 L4.4,25.1 Z M12.4,41.4 C16.5,35 21.8,30.8 28.3,28.8 C30.2,33.9 31.7,39 32.6,44.4 C30.3,45.3 27.8,45.8 25.2,45.8 C20.3,45.7 15.9,44.1 12.4,41.4 L12.4,41.4 L12.4,41.4 Z M36.5,42.3 C35.6,37.4 34.2,32.6 32.5,27.9 C36.4,27.3 40.7,27.5 45.4,28.3 C44.6,34.1 41.2,39.1 36.5,42.3 L36.5,42.3 L36.5,42.3 Z" id="dribbble-icon_3_"></path>
                </g>
            </g>
        </g>
    </g>
</svg>