<?xml version="1.0" encoding="UTF-8"?>
<svg width="191px" height="46px" viewBox="0 0 191 46" version="1.1" xmlns="http://www.w3.org/2000/svg" xmlns:xlink="http://www.w3.org/1999/xlink">
    <!-- Generator: Sketch 50 (54983) - http://www.bohemiancoding.com/sketch -->
    <title>horizontal_default</title>
    <desc>Created with Sketch.</desc>
    <defs></defs>
    <g id="Page-1" stroke="none" stroke-width="1" fill="none" fill-rule="evenodd">
        <g id="Desktop-HD-Copy-3" transform="translate(-787.000000, -1852.000000)" fill-rule="nonzero">
            <g id="Logos" transform="translate(293.000000, 1848.000000)">
                <g id="horizontal_default" transform="translate(494.000000, 4.000000)">
                    <path d="M80.9505414,30.3495455 L77.8025146,30.3495455 L77.8025146,22.8118182 C77.8025146,21.3847727 77.5854093,20.3602273 77.1511987,19.7381818 C76.7169881,19.1161364 75.9571195,18.7868182 74.9077772,18.7868182 C73.6413296,18.7868182 72.6643558,19.2625 71.9768557,20.1772727 L71.9768557,30.3495455 L68.8288288,30.3495455 L68.8288288,9.2 L71.9768557,9.2 L71.9768557,17.3231818 C72.9538295,16.4815909 74.039356,16.0790909 75.197251,16.0790909 C79.0327779,16.0790909 80.9867256,18.3111364 80.9867256,22.8118182 L80.9867256,30.3495455 L80.9505414,30.3495455 Z M83.2301471,23.3606818 C83.2301471,22.3361364 83.3748839,21.3847727 83.7367261,20.5065909 C84.0623841,19.6284091 84.5327789,18.86 85.1479106,18.2013636 C85.7630422,17.5427273 86.4867266,17.0304545 87.3551478,16.6645455 C88.223569,16.2986364 89.1643586,16.1156818 90.2498851,16.1156818 C91.2992274,16.1156818 92.2762012,16.2986364 93.1084382,16.6645455 C93.9768594,17.0304545 94.7005438,17.5427273 95.3156755,18.2013636 C95.9308071,18.86 96.401202,19.6284091 96.7268599,20.5065909 C97.0525179,21.3847727 97.2334389,22.3361364 97.2334389,23.3606818 C97.2334389,24.3852273 97.0887021,25.3365909 96.7630441,26.2147727 C96.4373862,27.0929545 95.9669914,27.8613636 95.3518597,28.52 C94.736728,29.1786364 94.0130436,29.6909091 93.1446224,30.0568182 C92.2762012,30.4227273 91.3354116,30.6056818 90.2498851,30.6056818 C89.1643586,30.6056818 88.1873848,30.4227273 87.3551478,30.0568182 C86.4867266,29.6909091 85.7630422,29.1786364 85.1840948,28.52 C84.5689631,27.8613636 84.0985683,27.0929545 83.7729103,26.2147727 C83.3748839,25.3365909 83.2301471,24.3852273 83.2301471,23.3606818 Z M86.4505424,23.3606818 C86.4505424,24.7511364 86.7762003,25.8854545 87.4275162,26.7270455 C88.0788321,27.5686364 89.0196217,27.9711364 90.1775167,27.9711364 C91.3354116,27.9711364 92.2762012,27.5686364 92.9275171,26.7270455 C93.578833,25.8854545 93.904491,24.7877273 93.904491,23.3606818 C93.904491,21.9336364 93.578833,20.8359091 92.9275171,20.0309091 C92.2762012,19.2259091 91.3354116,18.7868182 90.1775167,18.7868182 C89.0196217,18.7868182 88.0788321,19.1893182 87.4275162,20.0309091 C86.7762003,20.8359091 86.4505424,21.9336364 86.4505424,23.3606818 Z M111.417652,30.3495455 L108.522915,30.3495455 L108.378178,29.2884091 C107.437388,30.1665909 106.351862,30.6056818 105.04923,30.6056818 C101.286071,30.6056818 99.4044919,28.4102273 99.4044919,24.0559091 L99.4044919,16.3352273 L102.552519,16.3352273 L102.552519,23.8363636 C102.552519,25.2268182 102.769624,26.2879545 103.240019,26.91 C103.710414,27.5686364 104.434098,27.8979545 105.447256,27.8979545 C106.677519,27.8979545 107.618309,27.4588636 108.233441,26.6172727 L108.233441,16.3718182 L111.381468,16.3718182 L111.381468,30.3495455 L111.417652,30.3495455 Z M120.029495,37.375 C118.943969,37.375 118.003179,37.2652273 117.170942,37.0456818 C116.338705,36.8261364 115.687389,36.5334091 115.144626,36.1309091 C114.601863,35.7284091 114.203837,35.2893182 113.914363,34.8136364 C113.624889,34.3013636 113.480152,33.7890909 113.480152,33.2036364 C113.480152,31.8131818 114.276205,30.7886364 115.832126,30.0568182 C114.963705,29.5811364 114.529495,28.9225 114.529495,28.1175 C114.529495,27.2759091 114.999889,26.6172727 115.976863,26.1415909 C114.49331,25.1170455 113.769626,23.5802273 113.769626,21.6043182 C113.769626,20.7993182 113.914363,20.0675 114.167652,19.4088636 C114.420942,18.7136364 114.782784,18.1281818 115.289363,17.6525 C115.759758,17.1768182 116.37489,16.7743182 117.06239,16.4815909 C117.74989,16.1888636 118.545943,16.0425 119.414364,16.0425 C120.644627,16.0425 121.730154,16.3352273 122.670943,16.9572727 C123.575549,16.5181818 124.588707,16.2986364 125.782786,16.2986364 L126.470286,16.2986364 L126.216997,18.3477273 L125.167654,18.3477273 C124.841996,18.3477273 124.480154,18.3843182 124.118312,18.4209091 C124.769628,19.3356818 125.095286,20.3968182 125.095286,21.5677273 C125.095286,22.3361364 124.986733,23.0313636 124.733444,23.69 C124.480154,24.3486364 124.118312,24.9340909 123.647917,25.4463636 C123.177522,25.9586364 122.562391,26.3611364 121.874891,26.6538636 C121.18739,26.9465909 120.391338,27.0929545 119.522916,27.0929545 C118.943969,27.0929545 118.401206,27.0197727 117.894627,26.91 C117.605153,27.0563636 117.460416,27.2393182 117.460416,27.4588636 C117.460416,27.6418182 117.532785,27.7515909 117.641337,27.8979545 C117.74989,28.0077273 117.966995,28.1175 118.256469,28.1906818 C118.545943,28.3004545 118.907785,28.3736364 119.37818,28.4468182 C119.848574,28.52 120.463706,28.6297727 121.18739,28.7029545 C121.802522,28.8127273 122.417654,28.9225 123.06897,29.0688636 C123.720286,29.2152273 124.299233,29.4347727 124.841996,29.7640909 C125.38476,30.0934091 125.81897,30.4593182 126.180812,30.935 C126.542654,31.4106818 126.723576,32.0693182 126.75976,32.8377273 C126.75976,34.1915909 126.180812,35.2893182 124.986733,36.0943182 C123.828838,36.9725 122.164364,37.375 120.029495,37.375 Z M119.414364,18.4940909 C118.509758,18.4940909 117.822258,18.7868182 117.351863,19.3356818 C116.881469,19.8845455 116.628179,20.6529545 116.628179,21.6043182 C116.628179,22.5556818 116.881469,23.3240909 117.351863,23.8729545 C117.822258,24.4218182 118.509758,24.7145455 119.414364,24.7145455 C120.318969,24.7145455 121.006469,24.4218182 121.476864,23.8729545 C121.947259,23.2875 122.200548,22.5190909 122.200548,21.5677273 C122.200548,20.6163636 121.947259,19.8479545 121.476864,19.2990909 C121.006469,18.7868182 120.318969,18.4940909 119.414364,18.4940909 Z M120.174232,31.1545455 L118.256469,30.8618182 C117.677521,31.0447727 117.170942,31.3375 116.8091,31.6668182 C116.447258,32.0327273 116.266337,32.4352273 116.266337,32.9475 C116.266337,33.5695455 116.591995,34.0818182 117.243311,34.4843182 C117.894627,34.8868182 118.799232,35.0697727 119.993311,35.0697727 C121.151206,35.0697727 122.091996,34.8868182 122.81568,34.5209091 C123.539364,34.155 123.901207,33.6427273 123.901207,33.0572727 C123.901207,32.5084091 123.575549,32.1059091 122.960417,31.8131818 C122.272917,31.5570455 121.368311,31.3375 120.174232,31.1545455 Z" id="Shape" fill="#ED3E44"></path>
                    <path d="M159.202321,30.475 C157.776138,30.475 156.599537,30.0022222 155.565555,29.0930342 L155.458591,30.1840598 L152.570571,30.1840598 L152.570571,9.2 L155.672518,9.2 L155.672518,17.2372222 C156.563883,16.4371368 157.740484,16.037094 159.202321,16.037094 C160.200649,16.037094 161.092014,16.2189316 161.912069,16.5826068 C162.732124,16.9462821 163.409561,17.4554274 163.980034,18.1100427 C164.550507,18.7646581 164.978362,19.5283761 165.299253,20.4011966 C165.620144,21.2740171 165.762763,22.2195726 165.762763,23.2378632 C165.762763,24.2561538 165.620144,25.2017094 165.299253,26.0745299 C165.014017,26.9473504 164.550507,27.7110684 163.980034,28.3656838 C163.409561,29.0202991 162.732124,29.5294444 161.912069,29.8931197 C161.127668,30.2931624 160.236304,30.475 159.202321,30.475 Z M158.952739,18.7282906 C157.883102,18.7282906 157.063047,19.1283333 156.456919,19.9284188 C155.850791,20.7285043 155.565555,21.8558974 155.565555,23.2742308 C155.565555,24.7289316 155.850791,25.8563248 156.456919,26.6564103 C157.063047,27.4564957 157.883102,27.8565385 158.952739,27.8565385 C160.058031,27.8565385 160.913741,27.4201282 161.591178,26.5836752 C162.23296,25.7472222 162.553851,24.6198291 162.553851,23.2742308 C162.553851,21.9286325 162.23296,20.8376068 161.591178,20.0011538 C160.98505,19.1283333 160.093686,18.7282906 158.952739,18.7282906 Z" id="Shape" fill="#ED3E44"></path>
                    <path d="M140.605294,30.1845563 L137.465833,30.1845563 L137.465833,22.7056314 C137.465833,21.2897184 137.249319,20.2731655 136.780204,19.6559727 C136.347175,19.0387799 135.589374,18.7120307 134.542887,18.7120307 C133.279886,18.7120307 132.30557,19.1840017 131.619941,20.0916382 L131.619941,30.1845563 L128.48048,30.1845563 L128.48048,9.2 L131.619941,9.2 L131.619941,17.2598123 C132.594257,16.4247867 133.676829,16.0254266 134.831573,16.0254266 C138.656663,16.0254266 140.605294,18.2400597 140.605294,22.7056314 L140.605294,30.1845563 Z M150.276276,27.8610068 L149.98759,30.475 L147.60593,30.475 C146.992473,30.475 146.451186,30.3660836 145.982071,30.1845563 C145.512957,30.003029 145.116013,29.7488908 144.827327,29.4221416 C144.538641,29.0953925 144.286041,28.7323379 144.141698,28.2966724 C143.997355,27.8610068 143.925183,27.3890358 143.925183,26.9170648 L143.925183,18.8572526 L141.83221,18.8572526 L142.120896,16.2795648 L143.925183,16.2795648 L143.925183,12.1407423 L147.064644,11.8139932 L147.064644,16.2795648 L150.276276,16.2795648 L150.276276,18.8572526 L147.064644,18.8572526 L147.064644,25.4648464 C147.064644,26.0457338 147.10073,26.4813993 147.136816,26.8081485 C147.172901,27.1348976 147.281159,27.3890358 147.425502,27.5342577 C147.569845,27.6794795 147.822445,27.7883959 148.111131,27.8247014 C148.435903,27.8610068 148.868932,27.8973123 149.410218,27.8973123 L150.276276,27.8973123 L150.276276,27.8610068 Z" id="Shape" fill="#ED3E44"></path>
                    <path d="M168.057057,23.7036479 C168.057057,22.6699903 168.202727,21.7101654 168.5669,20.8241732 C168.894657,19.9381809 169.368082,19.1629377 169.987178,18.4984436 C170.606273,17.8339494 171.33462,17.3171206 172.208637,16.9479572 C173.082654,16.5787938 174.029506,16.3942121 175.122027,16.3942121 C176.178131,16.3942121 177.161399,16.5787938 177.998999,16.9479572 C178.873016,17.3171206 179.601363,17.8339494 180.184041,18.4984436 C180.766719,19.1629377 181.276562,19.9381809 181.604319,20.8241732 C181.932075,21.7101654 182.114162,22.6699903 182.114162,23.7036479 C182.114162,24.7373054 181.932075,25.6971304 181.604319,26.5831226 C181.276562,27.4691148 180.803136,28.244358 180.184041,28.9088521 C179.564946,29.5733463 178.836599,30.0901751 177.962582,30.4593385 C177.088565,30.8285019 176.141713,31.0130837 175.049192,31.0130837 C173.956671,31.0130837 172.973402,30.8285019 172.135802,30.4593385 C171.261786,30.0901751 170.533438,29.5733463 169.914343,28.9088521 C169.295248,28.244358 168.821822,27.4691148 168.494065,26.5831226 C168.202727,25.6971304 168.057057,24.7373054 168.057057,23.7036479 Z M171.298203,23.7036479 C171.298203,25.1064689 171.625959,26.2508755 172.281472,27.0999514 C172.936985,27.9490272 173.883836,28.355107 175.049192,28.355107 C176.214548,28.355107 177.161399,27.9490272 177.816912,27.0999514 C178.472425,26.2508755 178.800181,25.1433852 178.800181,23.7036479 C178.800181,22.2639105 178.472425,21.1564202 177.816912,20.3442607 C177.161399,19.5321012 176.214548,19.0891051 175.049192,19.0891051 C173.883836,19.0891051 172.936985,19.4951848 172.281472,20.3442607 C171.625959,21.1564202 171.298203,22.2639105 171.298203,23.7036479 Z M191,28.3920233 L190.708661,31.05 L188.305115,31.05 C187.686019,31.05 187.139759,30.939251 186.666333,30.7546693 C186.192907,30.5700875 185.792316,30.3116732 185.500977,29.9794261 C185.209638,29.647179 184.954717,29.2780156 184.809047,28.8350195 C184.663378,28.3920233 184.590543,27.9121109 184.590543,27.4321984 L184.590543,19.2367704 L182.478335,19.2367704 L182.769674,16.6157101 L184.590543,16.6157101 L184.590543,12.4072471 L187.758854,12.075 L187.758854,16.6157101 L191,16.6157101 L191,19.2367704 L187.758854,19.2367704 L187.758854,25.9555447 C187.758854,26.5462062 187.795271,26.9892023 187.831689,27.3214494 C187.868106,27.6536965 187.977358,27.9121109 188.123028,28.0597763 C188.268697,28.2074416 188.523619,28.3181907 188.814958,28.355107 C189.142714,28.3920233 189.579723,28.4289397 190.125983,28.4289397 L191,28.4289397 L191,28.3920233 Z" id="Shape" fill="#ED3E44"></path>
                    <path d="M66.5345345,27.7886435 L66.2439907,30.4006309 L63.8470042,30.4006309 C63.2295986,30.4006309 62.6848289,30.2917981 62.2126952,30.1104101 C61.7405615,29.9290221 61.3410638,29.6750789 61.05052,29.3485804 C60.7236582,29.022082 60.5057503,28.659306 60.3604784,28.2239748 C60.2152065,27.7886435 60.1425705,27.3170347 60.1425705,26.8454259 L60.1425705,18.7917981 L58.0361278,18.7917981 L58.3266716,16.2160883 L60.1425705,16.2160883 L60.1425705,12.0804416 L63.3022345,11.7539432 L63.3022345,16.2160883 L66.5345345,16.2160883 L66.5345345,18.7917981 L63.3022345,18.7917981 L63.3022345,25.3943218 C63.3022345,25.9747634 63.3385525,26.4100946 63.3748705,26.7365931 C63.4111885,27.0630915 63.5201424,27.3170347 63.6654143,27.4621451 C63.8106862,27.6072555 64.0649121,27.7160883 64.3554559,27.7523659 C64.6823177,27.7886435 65.1181334,27.8249211 65.6629031,27.8249211 L66.5345345,27.8249211 L66.5345345,27.7886435 Z M23.0255977,0 C10.3143056,0 0,10.3028391 0,23 C0,35.6971609 10.3143056,46 23.0255977,46 C35.7368897,46 46.0511953,35.6971609 46.0511953,23 C46.0511953,10.3028391 35.7368897,0 23.0255977,0 Z" id="Shape" fill="#ED3E44"></path>
                    <path d="M17.2860489,24.4565331 L16.3744415,24.4565331 L16.3744415,30.9478223 C16.7026201,31.3084495 16.8849416,31.7772648 16.8849416,32.2821429 C16.8849416,32.9312718 16.5932272,33.5082753 16.1191914,33.8689024 L15.5357626,33.291899 C15.8639413,33.0394599 16.0462628,32.6788328 16.0462628,32.2460801 C16.0462628,31.5248258 15.462834,30.9478223 14.733548,30.9478223 C14.004262,30.9478223 13.4208332,31.5248258 13.4208332,32.2460801 C13.4208332,32.6788328 13.639619,33.0394599 13.9313334,33.2558362 L13.3479046,33.8328397 C12.8738687,33.4361498 12.6186186,32.8952091 12.6186186,32.2460801 C12.6186186,31.7412021 12.8009401,31.2723868 13.1291188,30.9117596 L13.1291188,20.8141986 C13.1655831,20.4175087 13.4572975,20.129007 13.8584048,20.129007 L32.6010547,20.129007 C33.002162,20.129007 33.2938764,20.4535714 33.3303406,20.8141986 L33.3303406,30.9478223 C33.6585193,31.3084495 33.8408408,31.7772648 33.8408408,32.2821429 C33.8408408,32.9312718 33.5491264,33.5082753 33.0750906,33.8689024 L32.4916618,33.291899 C32.8198405,33.0394599 33.002162,32.6788328 33.002162,32.2821429 C33.002162,31.5608885 32.4187332,30.983885 31.6894472,30.983885 C30.9601612,30.983885 30.3767324,31.5608885 30.3767324,32.2821429 C30.3767324,32.7148955 30.5955182,33.0755226 30.8872326,33.3279617 L30.3038038,33.9049652 C29.8297679,33.5082753 29.5380535,32.9312718 29.5380535,32.3182056 C29.5380535,31.8133275 29.720375,31.3445122 30.0485537,30.983885 L30.0485537,24.4925958 L29.1004819,24.4925958 L29.1004819,38.1964286 L29.720375,38.5570557 L29.720375,39.675 L23.5579084,39.675 L23.5579084,38.5570557 L24.1778015,38.1964286 L24.1778015,34.049216 L22.3181222,34.049216 L22.3181222,38.1964286 L22.9380153,38.5570557 L22.9380153,39.675 L16.6661558,39.675 L16.6661558,38.5570557 L17.2860489,38.1964286 L17.2860489,24.4565331 Z M23.266194,9.59869338 C24.5789088,9.59869338 25.7457664,10.0675087 26.4750524,10.7527003 L27.0584812,9.95932056 C26.1468737,9.16594077 24.7976946,8.625 23.266194,8.625 C21.7346935,8.625 20.3855144,9.12987805 19.4739069,9.95932056 L20.0573357,10.7527003 C20.7866217,10.0675087 21.9534793,9.59869338 23.266194,9.59869338 Z" id="Shape" fill="#FFFFFF"></path>
                    <path d="M23.2297297,7.97333333 C24.6486823,7.97333333 25.9584846,8.395 26.9772198,9.2 C27.1591367,9.35333333 27.3410537,9.545 27.5229707,9.69833333 L28.1051051,8.81666667 C26.9772198,7.66666667 25.2308166,6.9 23.2661131,6.9 C21.2650262,6.9 19.4458563,7.66666667 18.3543544,8.89333333 L18.9364887,9.775 C19.1184057,9.545 19.3367061,9.35333333 19.5550065,9.16166667 C20.4645915,8.395 21.8107772,7.97333333 23.2297297,7.97333333 Z" id="Shape" fill="#FFFFFF"></path>
                    <path d="M23.2297297,5.60485437 C25.4927382,5.60485437 27.5002457,6.46084142 28.6682501,7.72621359 L29.2522523,6.90744337 C27.8652471,5.53042071 25.6752389,4.6 23.2297297,4.6 C20.7842206,4.6 18.5942124,5.49320388 17.2072072,6.90744337 L17.7912094,7.72621359 C18.9592138,6.4236246 20.9667213,5.60485437 23.2297297,5.60485437 Z M21.4047229,15.4673139 C21.4047229,15.8022654 21.1127218,16.1 20.7842206,16.1 C20.4557194,16.1 20.1637183,15.8022654 20.1637183,15.4673139 C20.1637183,15.1323625 20.4557194,14.8346278 20.7842206,14.8346278 C21.1492219,14.8346278 21.4047229,15.0951456 21.4047229,15.4673139 Z" id="Shape" fill="#FFFFFF"></path>
                    <path d="M25.6736105,16.5671875 C25.021909,16.5671875 24.4788243,16.028125 24.4788243,15.38125 C24.4788243,14.734375 25.021909,14.1953125 25.6736105,14.1953125 C26.325312,14.1953125 26.8683966,14.734375 26.8683966,15.38125 C26.8683966,16.028125 26.325312,16.5671875 25.6736105,16.5671875 Z M20.8220546,16.5671875 C20.1703531,16.5671875 19.6272685,16.028125 19.6272685,15.38125 C19.6272685,14.734375 20.1703531,14.1953125 20.8220546,14.1953125 C21.4737561,14.1953125 22.0168408,14.734375 22.0168408,15.38125 C22.0530464,16.028125 21.5099618,16.5671875 20.8220546,16.5671875 Z M27.9907715,12.075 L18.5048936,12.075 C18.1066315,12.075 17.7807808,12.3984375 17.7807808,12.7578125 L17.7807808,18.8671875 C17.7807808,19.2625 18.1066315,19.55 18.5048936,19.55 L27.9907715,19.55 C28.3890336,19.55 28.6786787,19.2265625 28.6786787,18.8671875 L28.6786787,12.7578125 C28.6786787,12.3984375 28.3528279,12.075 27.9907715,12.075 Z" id="Shape" fill="#FFFFFF"></path>
                    <path d="M26.3843844,15.525 C26.3843844,15.8294118 26.1144674,16.1 25.8108108,16.1 C25.5071542,16.1 25.2372372,15.8294118 25.2372372,15.525 C25.2372372,15.2205882 25.5071542,14.95 25.8108108,14.95 C26.1144674,14.95 26.3843844,15.1867647 26.3843844,15.525 Z" id="Shape" fill="#FFFFFF"></path>
                </g>
            </g>
        </g>
    </g>
</svg>