<?xml version="1.0" encoding="UTF-8" standalone="no"?>
<svg width="51px" height="51px" viewBox="0 0 51 51" version="1.1" xmlns="http://www.w3.org/2000/svg" xmlns:xlink="http://www.w3.org/1999/xlink">
    <!-- Generator: Sketch 39 (31667) - http://www.bohemiancoding.com/sketch -->
    <title>twitter-4-icon_2_</title>
    <desc>Created with Sketch.</desc>
    <defs></defs>
    <g id="Page-1" stroke="none" stroke-width="1" fill="none" fill-rule="evenodd">
        <g id="Layer_1" fill="#5B5B5B">
            <path d="M25.1,0 C11.2,0 0,11.2 0,25.1 C0,39 11.2,50.2 25.1,50.2 C39,50.2 50.2,39 50.2,25.1 C50.2,11.2 38.9,0 25.1,0 L25.1,0 Z M37.6,20.7 C38,28.9 31.9,38 21.1,38 C17.8,38 14.8,37 12.2,35.4 C15.3,35.8 18.4,34.9 20.8,33 C18.3,33 16.1,31.3 15.4,29 C16.3,29.2 17.2,29.1 18,28.9 C15.2,28.3 13.3,25.8 13.3,23.1 C14.1,23.5 15,23.8 15.9,23.8 C13.3,22.1 12.6,18.7 14.1,16 C17,19.5 21.2,21.8 26.1,22.1 C25.3,18.5 28,15 31.8,15 C33.5,15 35,15.7 36,16.8 C37.3,16.5 38.6,16.1 39.7,15.4 C39.3,16.8 38.3,17.9 37.1,18.6 C38.3,18.5 39.4,18.1 40.4,17.7 C39.8,18.9 38.8,19.9 37.6,20.7 L37.6,20.7 Z" id="twitter-4-icon_2_"></path>
        </g>
    </g>
</svg>