<?xml version="1.0" encoding="utf-8"?>
<!-- Generator: Adobe Illustrator 18.0.0, SVG Export Plug-In . SVG Version: 6.00 Build 0)  -->
<!DOCTYPE svg PUBLIC "-//W3C//DTD SVG 1.1//EN" "http://www.w3.org/Graphics/SVG/1.1/DTD/svg11.dtd">
<svg version="1.1" xmlns="http://www.w3.org/2000/svg" xmlns:xlink="http://www.w3.org/1999/xlink" x="0px" y="0px"
	 viewBox="0 0 50.1 50.1" enable-background="new 0 0 50.1 50.1" xml:space="preserve">
<g id="Layer_1">
	<path id="dribbble-icon_3_" fill="#FFFFFF" d="M25.1,0C11.2,0,0,11.2,0,25.1c0,13.8,11.2,25.1,25.1,25.1s25.1-11.2,25.1-25.1
		C50.1,11.2,38.9,0,25.1,0z M45.7,23.9C40.3,23,35.4,23,30.9,23.7c-0.5-1.2-1-2.3-1.6-3.5c4.8-2.1,8.7-4.9,11.6-8.5
		C43.7,15,45.4,19.3,45.7,23.9z M37.7,8.7c-2.5,3.2-6,5.8-10.4,7.7C25.1,12.5,22.7,8.7,20,5c1.6-0.4,3.3-0.7,5.1-0.7
		C29.8,4.4,34.2,6,37.7,8.7z M15.7,6.6c2.8,3.6,5.2,7.4,7.4,11.2C18,19.3,12,20.1,5,20.2C6.4,14.2,10.4,9.3,15.7,6.6z M4.4,25.1
		c0-0.2,0-0.4,0-0.5c8,0,15-0.9,20.8-2.8c0.5,1,1,2,1.4,3C19.5,27,13.7,31.5,9.1,38.3C6.2,34.7,4.4,30.1,4.4,25.1z M12.4,41.4
		c4.1-6.4,9.4-10.6,15.9-12.6c1.9,5.1,3.4,10.2,4.3,15.6c-2.3,0.9-4.8,1.4-7.4,1.4C20.3,45.7,15.9,44.1,12.4,41.4z M36.5,42.3
		c-0.9-4.9-2.3-9.7-4-14.4c3.9-0.6,8.2-0.4,12.9,0.4C44.6,34.1,41.2,39.1,36.5,42.3z"/>
</g>
<g id="Layer_2" display="none">
</g>
</svg>
