<?xml version="1.0" encoding="UTF-8"?>
<svg width="31px" height="93px" viewBox="0 0 31 93" version="1.1" xmlns="http://www.w3.org/2000/svg" xmlns:xlink="http://www.w3.org/1999/xlink">
    <!-- Generator: Sketch 50 (54983) - http://www.bohemiancoding.com/sketch -->
    <title>leaves</title>
    <desc>Created with Sketch.</desc>
    <defs></defs>
    <g id="Page-1" stroke="none" stroke-width="1" fill="none" fill-rule="evenodd">
        <g id="Desktop-HD-Copy-3" transform="translate(-1194.000000, -5474.000000)" fill="#404040">
            <g id="leaves" transform="translate(1202.287680, 5519.234071) scale(-1, 1) rotate(22.000000) translate(-1202.287680, -5519.234071) translate(1177.287680, 5476.234071)">
                <path d="M50,84.2847821 L48.8504526,82.3980424 C48.8504526,82.3980424 45.1211699,83.989979 43.4157382,80.9293871 C40.8791783,76.3786996 42.4766713,68.5637381 28.4932103,63 C28.4500348,71.2491261 33.0806058,76.5073409 37.1013231,79.096248 C33.0806058,76.5019809 26.5665042,74.1274761 19,77.5257516 C24.8178969,83.8023771 33.6850627,86 40.7388579,86 C44.6624304,85.9946399 48.0247214,85.3192729 50,84.2847821 Z" id="Path"></path>
                <path d="M25.963187,73 L26,70.8288908 C26,70.8288908 23.4441231,70.8826311 23.423087,68.5879192 C23.375756,63.8963887 27.8827242,58.3718831 19.4157244,48 C15.9237444,54.5348237 17.1385748,61.2039983 19.1527741,64.9711952 C17.1385748,61.1986242 13.2626874,56.0180567 6,55.4967756 C9.37628188,69.1521926 24.3118591,72.7850387 25.963187,73 Z" id="Path"></path>
                <path d="M12.537701,55 L14.1182412,54.0398787 C14.1182412,54.0398787 11.791032,52.7740205 12.3469462,50.7894123 C13.480575,46.7236474 18.9143632,43.0923507 13.9274864,32 C9.15316498,36.7576959 8.51004863,42.9850746 9.37662066,46.7504664 C8.51549877,42.9850746 6.40084501,37.3691698 0.013282608,35.0841884 C-0.466329586,47.8554104 12.1997924,54.8444496 12.537701,55 Z" id="Path"></path>
                <path d="M5.87044397,32.549176 C6.65672366,34.2238171 6.7996836,34.8989899 6.7996836,34.8989899 L8.36124605,35 C8.36124605,35 7.48699102,33.0648591 8.48771062,31.5018607 C10.538636,28.3067517 16.213046,26.5417331 14.7669512,15.8187135 C9.36196565,18.7001595 7.42650797,23.97395 7.19557267,27.4136098 C7.42650797,23.97395 6.7996836,18.5353535 1.84007328,15 C-1.03562095,25.4518873 4.26489385,29.1201489 5.87044397,32.549176 Z" id="Path"></path>
                <path d="M6.44873655,7.47494342 C5.19521938,12.2017459 6.96581239,17 6.96581239,17 C6.96581239,17 10.251072,13.9055933 11.5254811,9.5195603 C12.7163224,5.40834142 11.2904466,0 11.2904466,0 C11.2904466,0 7.60823994,3.12188813 6.44873655,7.47494342 Z" id="Path"></path>
            </g>
        </g>
    </g>
</svg>