<?xml version="1.0" encoding="UTF-8" standalone="no"?>
<svg width="52px" height="52px" viewBox="0 0 52 52" version="1.1" xmlns="http://www.w3.org/2000/svg" xmlns:xlink="http://www.w3.org/1999/xlink">
    <!-- Generator: Sketch 39 (31667) - http://www.bohemiancoding.com/sketch -->
    <title>email-9-icon_2_</title>
    <desc>Created with Sketch.</desc>
    <defs></defs>
    <g id="Page-1" stroke="none" stroke-width="1" fill="none" fill-rule="evenodd">
        <g id="Layer_1" fill="#5B5B5B">
            <path d="M25.8,0 C11.5,0 0,11.5 0,25.8 C0,40.1 11.5,51.6 25.8,51.6 C40.1,51.6 51.5,40 51.5,25.8 C51.5,11.6 40,0 25.8,0 L25.8,0 Z M41.2,14.3 L25.9,26.1 L10.5,14.3 L41.2,14.3 L41.2,14.3 Z M10.4,17.5 L19.4,24.4 L10.4,33.4 L10.4,17.5 L10.4,17.5 L10.4,17.5 Z M10.5,37.2 L21.6,26.1 L25.9,29.4 L30.2,26.1 L41.3,37.2 L10.5,37.2 L10.5,37.2 L10.5,37.2 Z M41.3,33.5 L32.3,24.5 L41.3,17.6 L41.3,33.5 L41.3,33.5 Z" id="email-9-icon_2_"></path>
        </g>
    </g>
</svg>